<?xml version="1.0" standalone="no"?><!DOCTYPE svg PUBLIC "-//W3C//DTD SVG 1.1//EN" "http://www.w3.org/Graphics/SVG/1.1/DTD/svg11.dtd"><svg t="1652406752207" class="icon" viewBox="0 0 1024 1024" version="1.1" xmlns="http://www.w3.org/2000/svg" p-id="4477" xmlns:xlink="http://www.w3.org/1999/xlink" width="200" height="200"><defs><style type="text/css">@font-face { font-family: feedback-iconfont; src: url("//at.alicdn.com/t/font_1031158_u69w8yhxdu.woff2?t=1630033759944") format("woff2"), url("//at.alicdn.com/t/font_1031158_u69w8yhxdu.woff?t=1630033759944") format("woff"), url("//at.alicdn.com/t/font_1031158_u69w8yhxdu.ttf?t=1630033759944") format("truetype"); }
</style></defs><path d="M818.524573 102.174858H205.475427a51.087429 51.087429 0 0 1 0-102.174858h613.049146a51.087429 51.087429 0 0 1 0 102.174858zM242.76925 631.440621L460.912571 852.138313V303.459327a51.087429 51.087429 0 0 1 102.174858 0v548.678986l218.143321-220.186818a51.087429 51.087429 0 0 1 72.033275 0 46.48956 46.48956 0 0 1 0 67.94628l-306.524573 309.589819a55.174423 55.174423 0 0 1-74.587647 0l-306.524573-309.589819a46.48956 46.48956 0 0 1 0-67.94628 51.087429 51.087429 0 0 1 77.142018-0.510874z" fill="#2c2c2c" p-id="4478"></path></svg>