<?xml version="1.0" standalone="no"?><!DOCTYPE svg PUBLIC "-//W3C//DTD SVG 1.1//EN" "http://www.w3.org/Graphics/SVG/1.1/DTD/svg11.dtd"><svg t="1656574283071" class="icon" viewBox="0 0 1024 1024" version="1.1" xmlns="http://www.w3.org/2000/svg" p-id="4450" xmlns:xlink="http://www.w3.org/1999/xlink" width="200" height="200"><defs><style type="text/css">@font-face { font-family: feedback-iconfont; src: url("//at.alicdn.com/t/font_1031158_u69w8yhxdu.woff2?t=1630033759944") format("woff2"), url("//at.alicdn.com/t/font_1031158_u69w8yhxdu.woff?t=1630033759944") format("woff"), url("//at.alicdn.com/t/font_1031158_u69w8yhxdu.ttf?t=1630033759944") format("truetype"); }
</style></defs><path d="M790.467765 1024h-554.164706a126.494118 126.494118 0 0 1-126.494118-126.494118V126.494118a126.494118 126.494118 0 0 1 126.494118-126.494118h554.164706a126.494118 126.494118 0 0 1 126.494117 126.494118v771.011764a126.494118 126.494118 0 0 1-126.494117 126.494118z m-554.164706-963.764706a66.258824 66.258824 0 0 0-66.258824 66.258824v771.011764a66.258824 66.258824 0 0 0 66.258824 66.258824h554.164706a66.258824 66.258824 0 0 0 66.258823-66.258824V126.494118a66.258824 66.258824 0 0 0-66.258823-66.258824z" p-id="4451"></path><path d="M452.126118 469.835294H161.129412V409.6h275.215059l143.781647-80.474353 29.394823 52.525177L452.126118 469.835294z" p-id="4452"></path><path d="M655.058824 319.247059m-78.305883 0a78.305882 78.305882 0 1 0 156.611765 0 78.305882 78.305882 0 1 0-156.611765 0Z" p-id="4453"></path><path d="M446.885647 694.874353l-29.394823-52.525177L574.885647 554.164706h290.996706v60.235294H590.667294l-143.781647 80.474353z" p-id="4454"></path><path d="M371.952941 704.752941m-78.305882 0a78.305882 78.305882 0 1 0 156.611765 0 78.305882 78.305882 0 1 0-156.611765 0Z" p-id="4455"></path><path d="M990.870588 228.894118h-102.4a30.117647 30.117647 0 0 1 0-60.235294h102.4a30.117647 30.117647 0 0 1 0 60.235294zM990.870588 435.681882h-102.4a30.117647 30.117647 0 0 1 0-60.235294h102.4a30.117647 30.117647 0 0 1 0 60.235294zM990.870588 642.529882h-102.4a30.117647 30.117647 0 0 1 0-60.235294h102.4a30.117647 30.117647 0 0 1 0 60.235294zM990.870588 849.317647h-102.4a30.117647 30.117647 0 0 1 0-60.235294h102.4a30.117647 30.117647 0 0 1 0 60.235294zM135.529412 228.894118H33.129412a30.117647 30.117647 0 0 1 0-60.235294h102.4a30.117647 30.117647 0 0 1 0 60.235294zM135.529412 435.681882H33.129412a30.117647 30.117647 0 0 1 0-60.235294h102.4a30.117647 30.117647 0 0 1 0 60.235294zM135.529412 642.529882H33.129412a30.117647 30.117647 0 0 1 0-60.235294h102.4a30.117647 30.117647 0 0 1 0 60.235294zM135.529412 849.317647H33.129412a30.117647 30.117647 0 0 1 0-60.235294h102.4a30.117647 30.117647 0 0 1 0 60.235294z" p-id="4456"></path></svg>