<?xml version="1.0" standalone="no"?><!DOCTYPE svg PUBLIC "-//W3C//DTD SVG 1.1//EN" "http://www.w3.org/Graphics/SVG/1.1/DTD/svg11.dtd"><svg t="1652406469959" class="icon" viewBox="0 0 1024 1024" version="1.1" xmlns="http://www.w3.org/2000/svg" p-id="1053" xmlns:xlink="http://www.w3.org/1999/xlink" width="200" height="200"><defs><style type="text/css">@font-face { font-family: feedback-iconfont; src: url("//at.alicdn.com/t/font_1031158_u69w8yhxdu.woff2?t=1630033759944") format("woff2"), url("//at.alicdn.com/t/font_1031158_u69w8yhxdu.woff?t=1630033759944") format("woff"), url("//at.alicdn.com/t/font_1031158_u69w8yhxdu.ttf?t=1630033759944") format("truetype"); }
</style></defs><path d="M1024.24576 808.962258l-153.598387-767.991936a51.199462 51.199462 0 0 0-51.199463-40.95957H205.054362a51.199462 51.199462 0 0 0-51.199463 40.95957l-153.598387 767.991936a51.199462 51.199462 0 0 0 0 10.239892 204.79785 204.79785 0 0 0 204.79785 204.79785h614.393548a204.79785 204.79785 0 0 0 204.79785-204.79785 51.199462 51.199462 0 0 0 0-10.239892zM247.037921 102.409677h530.42643l122.87871 614.393549H124.159211zM819.44791 921.601075H205.054362a102.398925 102.398925 0 0 1-102.398925-97.790973V819.20215h819.191398v4.607952A102.398925 102.398925 0 0 1 819.44791 921.601075z" fill="#2c2c2c" p-id="1054"></path><path d="M512.251136 640.004032A230.397581 230.397581 0 1 0 281.853555 409.606451a230.397581 230.397581 0 0 0 230.397581 230.397581zM691.449254 409.606451a179.198118 179.198118 0 0 1-179.198118 179.198119 177.662135 177.662135 0 0 1-102.398925-34.30364L657.145615 307.207526a177.662135 177.662135 0 0 1 34.303639 102.398925zM512.251136 230.408333a177.15014 177.15014 0 0 1 109.054855 37.887602l-250.365371 250.365371A177.662135 177.662135 0 0 1 333.053018 409.606451 179.198118 179.198118 0 0 1 512.251136 230.408333z" fill="#f05d5d" p-id="1055"></path></svg>