<?xml version="1.0" standalone="no"?><!DOCTYPE svg PUBLIC "-//W3C//DTD SVG 1.1//EN" "http://www.w3.org/Graphics/SVG/1.1/DTD/svg11.dtd"><svg t="1651146171017" class="icon" viewBox="0 0 1280 1024" version="1.1" xmlns="http://www.w3.org/2000/svg" p-id="1943" xmlns:xlink="http://www.w3.org/1999/xlink" width="250" height="200"><defs><style type="text/css">@font-face { font-family: feedback-iconfont; src: url("//at.alicdn.com/t/font_1031158_u69w8yhxdu.woff2?t=1630033759944") format("woff2"), url("//at.alicdn.com/t/font_1031158_u69w8yhxdu.woff?t=1630033759944") format("woff"), url("//at.alicdn.com/t/font_1031158_u69w8yhxdu.ttf?t=1630033759944") format("truetype"); }
</style></defs><path d="M869.4 128h-171.8c-16 0-31.4 6-43.2 16.8l-196.6 180c-0.2 0.2-0.4 0.6-0.6 0.8-33.2 31.2-32.6 81-4.2 112 25.4 27.8 78.8 35.2 112.2 5.4 0.2-0.2 0.6-0.2 0.8-0.4l159.8-146.4c13-11.8 33.4-11 45.2 2 12 13 11 33.2-2 45.2l-52.2 47.8L1008 627.6c5.8 4.8 11 10 15.8 15.4V256l-109.2-109.2c-11.8-12-28.2-18.8-45.2-18.8zM1088 256.4v447.8c0 35.4 28.6 64 64 64h128V256.4h-192z m96 447.8c-17.6 0-32-14.4-32-32s14.4-32 32-32 32 14.4 32 32-14.4 32-32 32zM0 768h128c35.4 0 64-28.6 64-64V256.4H0V768z m96-127.8c17.6 0 32 14.4 32 32s-14.4 32-32 32-32-14.4-32-32c0-17.8 14.4-32 32-32z m871.8 37.2L669.2 435l-60 55c-59.4 54.2-150.4 49-203.4-8.8-53.8-58.8-49.6-149.8 8.8-203.4L578.2 128h-167.6c-17 0-33.2 6.8-45.2 18.8L256 256v447.8h36.6l181 163.8c54.8 44.6 135.4 36.2 180-18.6l0.4-0.4 35.8 31c31.8 26 78.8 21 104.6-10.8l62.8-77.2 10.8 8.8c27.4 22.2 67.8 18.2 90-9.4l19-23.4c22.4-27.6 18.2-67.8-9.2-90.2z" fill="" p-id="1944"></path></svg>