<?xml version="1.0" standalone="no"?><!DOCTYPE svg PUBLIC "-//W3C//DTD SVG 1.1//EN" "http://www.w3.org/Graphics/SVG/1.1/DTD/svg11.dtd"><svg t="1677733800624" class="icon" viewBox="0 0 1024 1024" version="1.1" xmlns="http://www.w3.org/2000/svg" p-id="1758" xmlns:xlink="http://www.w3.org/1999/xlink" width="32" height="32"><path d="M850.323 442.603c0 233.82-189.549 423.369-423.369 423.369S3.585 676.424 3.585 442.603 193.134 19.234 426.954 19.234s423.369 189.549 423.369 423.369zM427.056 111.574c-177.742 0-321.83 144.088-321.83 321.83s144.088 321.83 321.83 321.83 321.83-144.088 321.83-321.83-144.088-321.83-321.83-321.83z" fill="#5AA5FF" p-id="1759"></path><path d="M477.109 140.461a9.326 9.326 0 0 1-9.326 9.326h-73.3a9.326 9.326 0 0 1 0-18.652h73.3c5.151 0.001 9.326 4.176 9.326 9.326zM477.109 172.704a9.326 9.326 0 0 1-9.326 9.326h-73.3a9.326 9.326 0 0 1 0-18.652h73.3a9.326 9.326 0 0 1 9.326 9.326zM477.109 206.738a9.326 9.326 0 0 1-9.326 9.326h-73.3a9.326 9.326 0 0 1 0-18.652h73.3a9.326 9.326 0 0 1 9.326 9.326zM477.109 238.981a9.326 9.326 0 0 1-9.326 9.326h-73.3a9.326 9.326 0 0 1 0-18.652h73.3a9.325 9.325 0 0 1 9.326 9.326zM477.109 272.119a9.326 9.326 0 0 1-9.326 9.326h-73.3a9.326 9.326 0 0 1 0-18.652h73.3a9.326 9.326 0 0 1 9.326 9.326zM477.109 304.362a9.326 9.326 0 0 1-9.326 9.326h-73.3a9.326 9.326 0 0 1 0-18.652h73.3a9.325 9.325 0 0 1 9.326 9.326zM477.109 338.396a9.326 9.326 0 0 1-9.326 9.326h-73.3a9.326 9.326 0 0 1 0-18.652h73.3a9.325 9.325 0 0 1 9.326 9.326zM477.109 370.638a9.326 9.326 0 0 1-9.326 9.326h-73.3a9.326 9.326 0 0 1 0-18.652h73.3c5.151 0.001 9.326 4.176 9.326 9.326zM477.109 497.818a9.326 9.326 0 0 1-9.326 9.326h-73.3a9.326 9.326 0 0 1 0-18.652h73.3a9.326 9.326 0 0 1 9.326 9.326zM477.109 530.061a9.326 9.326 0 0 1-9.326 9.326h-73.3a9.326 9.326 0 0 1 0-18.652h73.3a9.325 9.325 0 0 1 9.326 9.326zM477.109 564.095a9.326 9.326 0 0 1-9.326 9.326h-73.3a9.326 9.326 0 0 1 0-18.652h73.3a9.325 9.325 0 0 1 9.326 9.326zM477.109 596.337a9.326 9.326 0 0 1-9.326 9.326h-73.3a9.326 9.326 0 0 1 0-18.652h73.3c5.151 0.001 9.326 4.176 9.326 9.326zM477.109 629.476a9.326 9.326 0 0 1-9.326 9.326h-73.3a9.326 9.326 0 0 1 0-18.652h73.3a9.325 9.325 0 0 1 9.326 9.326z" fill="#5AA5FF" p-id="1760"></path><path d="M477.291 620.147a9.326 9.326 0 0 1-9.326 9.326h-73.3a9.326 9.326 0 0 1 0-18.652h73.3a9.325 9.325 0 0 1 9.326 9.326zM477.291 654.181a9.326 9.326 0 0 1-9.326 9.326h-73.3a9.326 9.326 0 0 1 0-18.652h73.3a9.325 9.325 0 0 1 9.326 9.326zM477.291 686.423a9.326 9.326 0 0 1-9.326 9.326h-73.3a9.326 9.326 0 0 1 0-18.652h73.3c5.151 0.001 9.326 4.176 9.326 9.326zM137.366 387.428a9.326 9.326 0 0 1 9.326 9.326v73.3a9.326 9.326 0 0 1-18.652 0v-73.3c0.001-5.151 4.176-9.326 9.326-9.326zM169.609 387.428a9.326 9.326 0 0 1 9.326 9.326v73.3a9.326 9.326 0 0 1-18.652 0v-73.3a9.326 9.326 0 0 1 9.326-9.326zM203.643 387.428a9.326 9.326 0 0 1 9.326 9.326v73.3a9.326 9.326 0 0 1-18.652 0v-73.3a9.326 9.326 0 0 1 9.326-9.326zM235.886 387.428a9.326 9.326 0 0 1 9.326 9.326v73.3a9.326 9.326 0 0 1-18.652 0v-73.3a9.325 9.325 0 0 1 9.326-9.326zM269.024 387.428a9.326 9.326 0 0 1 9.326 9.326v73.3a9.326 9.326 0 0 1-18.652 0v-73.3a9.326 9.326 0 0 1 9.326-9.326zM301.267 387.428a9.326 9.326 0 0 1 9.326 9.326v73.3a9.326 9.326 0 0 1-18.652 0v-73.3a9.325 9.325 0 0 1 9.326-9.326zM335.301 387.428a9.326 9.326 0 0 1 9.326 9.326v73.3a9.326 9.326 0 0 1-18.652 0v-73.3a9.325 9.325 0 0 1 9.326-9.326zM367.543 387.428a9.326 9.326 0 0 1 9.326 9.326v73.3a9.326 9.326 0 0 1-18.652 0v-73.3c0.001-5.151 4.176-9.326 9.326-9.326zM494.723 387.428a9.326 9.326 0 0 1 9.326 9.326v73.3a9.326 9.326 0 0 1-18.652 0v-73.3a9.325 9.325 0 0 1 9.326-9.326zM526.966 387.428a9.326 9.326 0 0 1 9.326 9.326v73.3a9.326 9.326 0 0 1-18.652 0v-73.3a9.325 9.325 0 0 1 9.326-9.326zM561 387.428a9.326 9.326 0 0 1 9.326 9.326v73.3a9.326 9.326 0 0 1-18.652 0v-73.3a9.325 9.325 0 0 1 9.326-9.326zM593.242 387.428a9.326 9.326 0 0 1 9.326 9.326v73.3a9.326 9.326 0 0 1-18.652 0v-73.3c0.001-5.151 4.176-9.326 9.326-9.326zM626.381 387.428a9.326 9.326 0 0 1 9.326 9.326v73.3a9.326 9.326 0 0 1-18.652 0v-73.3a9.325 9.325 0 0 1 9.326-9.326zM658.623 387.428a9.326 9.326 0 0 1 9.326 9.326v73.3a9.326 9.326 0 0 1-18.652 0v-73.3c0.001-5.151 4.176-9.326 9.326-9.326zM692.657 387.428a9.326 9.326 0 0 1 9.326 9.326v73.3a9.326 9.326 0 0 1-18.652 0v-73.3a9.326 9.326 0 0 1 9.326-9.326zM724.9 387.428a9.326 9.326 0 0 1 9.326 9.326v73.3a9.326 9.326 0 0 1-18.652 0v-73.3a9.325 9.325 0 0 1 9.326-9.326z" fill="#5AA5FF" p-id="1761"></path><path d="M426.954 433.403m-43.886 0a43.886 43.886 0 1 0 87.772 0 43.886 43.886 0 1 0-87.772 0Z" fill="#5AA5FF" p-id="1762"></path><path d="M352.836 358.917m-20.521 0a20.521 20.521 0 1 0 41.042 0 20.521 20.521 0 1 0-41.042 0Z" fill="#5AA5FF" p-id="1763"></path><path d="M317.832 317.875m-20.521 0a20.521 20.521 0 1 0 41.042 0 20.521 20.521 0 1 0-41.042 0Z" fill="#5AA5FF" p-id="1764"></path><path d="M278.35 273.686m-20.521 0a20.521 20.521 0 1 0 41.042 0 20.521 20.521 0 1 0-41.042 0Z" fill="#5AA5FF" p-id="1765"></path><path d="M235.886 231.077m-20.521 0a20.521 20.521 0 1 0 41.042 0 20.521 20.521 0 1 0-41.042 0Z" fill="#5AA5FF" p-id="1766"></path><path d="M628.801 636.853m-20.521 0a20.521 20.521 0 1 0 41.042 0 20.521 20.521 0 1 0-41.042 0Z" fill="#5AA5FF" p-id="1767"></path><path d="M593.796 595.811m-20.521 0a20.521 20.521 0 1 0 41.042 0 20.521 20.521 0 1 0-41.042 0Z" fill="#5AA5FF" p-id="1768"></path><path d="M554.314 551.623m-20.521 0a20.521 20.521 0 1 0 41.042 0 20.521 20.521 0 1 0-41.042 0Z" fill="#5AA5FF" p-id="1769"></path><path d="M511.85 509.013m-20.521 0a20.521 20.521 0 1 0 41.042 0 20.521 20.521 0 1 0-41.042 0Z" fill="#5AA5FF" p-id="1770"></path><path d="M357.295 512.91m-20.521 0a20.521 20.521 0 1 0 41.042 0 20.521 20.521 0 1 0-41.042 0Z" fill="#5AA5FF" p-id="1771"></path><path d="M316.253 547.914m-20.521 0a20.521 20.521 0 1 0 41.042 0 20.521 20.521 0 1 0-41.042 0Z" fill="#5AA5FF" p-id="1772"></path><path d="M272.064 587.397m-20.521 0a20.521 20.521 0 1 0 41.042 0 20.521 20.521 0 1 0-41.042 0Z" fill="#5AA5FF" p-id="1773"></path><path d="M229.455 629.861m-20.521 0a20.521 20.521 0 1 0 41.042 0 20.521 20.521 0 1 0-41.042 0Z" fill="#5AA5FF" p-id="1774"></path><path d="M635.231 236.946m-20.521 0a20.521 20.521 0 1 0 41.042 0 20.521 20.521 0 1 0-41.042 0Z" fill="#5AA5FF" p-id="1775"></path><path d="M594.189 271.95m-20.521 0a20.521 20.521 0 1 0 41.042 0 20.521 20.521 0 1 0-41.042 0Z" fill="#5AA5FF" p-id="1776"></path><path d="M550.001 311.433m-20.521 0a20.521 20.521 0 1 0 41.042 0 20.521 20.521 0 1 0-41.042 0Z" fill="#5AA5FF" p-id="1777"></path><path d="M507.391 353.897m-20.521 0a20.521 20.521 0 1 0 41.042 0 20.521 20.521 0 1 0-41.042 0Z" fill="#5AA5FF" p-id="1778"></path><path d="M974.161 748.336c0 13.952 7.546 25.262 16.855 25.262 9.309 0 16.855-11.31 16.855-25.262V161.785c0-13.952-7.546-25.262-16.855-25.262-9.309 0-16.855 11.31-16.855 25.262v586.551z" fill="#5AA5FF" p-id="1779"></path><path d="M900.72 134.905c0 12.866 7.546 23.296 16.855 23.296h78.656c9.309 0 16.855-10.43 16.855-23.296s-7.546-23.296-16.855-23.296h-78.656c-9.308 0-16.855 10.43-16.855 23.296zM900.72 750.302c0 12.866 7.546 23.296 16.855 23.296h78.656c9.309 0 16.855-10.43 16.855-23.296s-7.546-23.296-16.855-23.296h-78.656c-9.308 0-16.855 10.43-16.855 23.296zM732.686 953.437c13.952 0 25.262 7.546 25.262 16.855 0 9.309-11.31 16.855-25.262 16.855H146.135c-13.952 0-25.262-7.546-25.262-16.855 0-9.309 11.31-16.855 25.262-16.855h586.551z" fill="#5AA5FF" p-id="1780"></path><path d="M119.255 879.997c12.866 0 23.296 7.546 23.296 16.855v78.656c0 9.309-10.43 16.855-23.296 16.855s-23.296-7.546-23.296-16.855v-78.656c0.001-9.309 10.431-16.855 23.296-16.855zM734.652 879.997c12.866 0 23.296 7.546 23.296 16.855v78.656c0 9.309-10.43 16.855-23.296 16.855s-23.296-7.546-23.296-16.855v-78.656c0-9.309 10.43-16.855 23.296-16.855z" fill="#5AA5FF" p-id="1781"></path></svg>