<?xml version="1.0" standalone="no"?><!DOCTYPE svg PUBLIC "-//W3C//DTD SVG 1.1//EN" "http://www.w3.org/Graphics/SVG/1.1/DTD/svg11.dtd"><svg t="1662099845095" class="icon" viewBox="0 0 1088 1024" version="1.1" xmlns="http://www.w3.org/2000/svg" p-id="4942" data-spm-anchor-id="a313x.7781069.0.i1" xmlns:xlink="http://www.w3.org/1999/xlink" width="34" height="32"><path d="M576 0a512 512 0 0 0-512 512 512 512 0 0 0 512 512 512 512 0 0 0 512-512 512 512 0 0 0-512-512z m0 896a64 64 0 1 1 0-128 64 64 0 0 1 0 128z m105.408-368.448c-30.272 23.36-46.976 36.224-46.976 73.408v52.096c0 29.376-25.984 53.376-58.048 53.376-32.128 0-58.176-24-58.176-53.376V600.96c0-86.848 53.184-127.872 88.32-155.008 30.336-23.424 46.976-36.224 46.976-73.344 0-41.856-34.624-76.032-77.12-76.032-42.56 0-77.12 34.112-77.12 76.032 0 29.504-26.112 53.312-58.176 53.312-32 0-58.176-23.808-58.176-53.312 0-100.736 86.848-182.656 193.472-182.656 106.56 0 193.344 81.856 193.344 182.656 0 86.784-53.12 127.744-88.32 154.944z" fill="#1195db" p-id="4943" data-spm-anchor-id="a313x.7781069.0.i0" class=""></path></svg>