<?xml version="1.0" standalone="no"?><!DOCTYPE svg PUBLIC "-//W3C//DTD SVG 1.1//EN" "http://www.w3.org/Graphics/SVG/1.1/DTD/svg11.dtd"><svg t="1662022648905" class="icon" viewBox="0 0 1024 1024" version="1.1" xmlns="http://www.w3.org/2000/svg" p-id="19066" xmlns:xlink="http://www.w3.org/1999/xlink" width="32" height="32"><path d="M923.136 267.605333v701.952H193.024v-909.653333h521.216z" fill="#7CCDFF" p-id="19067"></path><path d="M912.896 253.952l2.56 671.914667c0 15.530667-12.458667 27.989333-27.989333 27.989333H237.909333c-15.530667 0-27.989333-12.458667-27.989333-27.989333V96.938667c0-15.530667 12.458667-27.989333 27.989333-27.989334l493.397334-1.024-38.912-39.936H239.274667c-36.352 0-65.706667 29.354667-65.706667 65.706667v835.584c0 36.352 29.354667 65.706667 65.706667 65.706667h646.826666c36.352 0 65.706667-29.354667 65.706667-65.706667V293.888l-38.912-39.936z" fill="#4191FB" p-id="19068"></path><path d="M692.394667 222.72c0 39.424 31.914667 71.338667 71.338666 71.338667h188.245334L692.394667 27.989333v194.730667z" fill="#C7E2FF" p-id="19069"></path><path d="M557.568 482.304H158.72c-50.346667 0-91.136-40.789333-91.136-91.136v-60.245333c0-50.346667 40.789333-91.136 91.136-91.136h398.848c50.346667 0 91.136 40.789333 91.136 91.136v60.245333c0 50.346667-40.789333 91.136-91.136 91.136z" fill="#4191FB" p-id="19070"></path><path d="M119.125333 287.573333h86.016c14.336 0 25.429333 3.754667 33.109334 11.093334 7.68 7.509333 11.434667 16.725333 11.434666 27.648 0 9.216-2.730667 17.066667-8.192 23.722666-3.584 4.437333-9.045333 7.850667-16.042666 10.410667 10.752 2.730667 18.602667 7.338667 23.552 13.824 5.12 6.485333 7.509333 14.848 7.509333 24.746667 0 8.021333-1.877333 15.36-5.461333 21.845333-3.584 6.485333-8.533333 11.605333-14.677334 15.36-3.925333 2.389333-9.728 4.096-17.408 5.12-10.410667 1.365333-17.237333 2.048-20.650666 2.048H119.125333v-155.818667zM165.546667 348.672h19.968c7.168 0 12.117333-1.365333 15.018666-3.925333 2.730667-2.56 4.266667-6.314667 4.266667-11.264 0-4.608-1.365333-8.021333-4.266667-10.581334-2.730667-2.56-7.68-3.754667-14.677333-3.754666H165.546667v29.525333z m0 61.098667h23.381333c7.850667 0 13.482667-1.536 16.725333-4.437334 3.242667-2.901333 4.949333-6.826667 4.949334-11.776 0-4.608-1.536-8.362667-4.778667-11.093333s-8.874667-4.266667-16.896-4.266667H165.546667v31.573334zM280.234667 287.573333h60.416l23.381333 94.72 23.210667-94.72h60.416v155.818667h-37.717334v-118.784l-29.013333 118.784h-34.133333l-29.013334-118.784v118.784h-37.717333l0.170667-155.818667zM476.672 287.573333h76.458667c16.725333 0 29.184 4.096 37.376 12.458667 8.362667 8.362667 12.458667 20.138667 12.458666 35.328 0 15.701333-4.437333 27.989333-13.482666 36.864-9.045333 8.874667-22.869333 13.312-41.301334 13.312h-25.088v57.856h-46.250666l-0.170667-155.818667z m46.08 66.389334h11.264c8.874667 0 15.018667-1.536 18.602667-4.778667 3.584-3.242667 5.461333-7.338667 5.461333-12.458667 0-4.949333-1.536-9.045333-4.608-12.458666-3.072-3.413333-9.045333-5.12-17.578667-5.12h-13.141333v34.816z" fill="#FFFFFF" p-id="19071"></path><path d="M475.136 878.250667l-185.685333-129.877334c-14.677333-10.24-19.285333-32.256-10.24-48.981333 9.045333-16.725333 28.330667-22.016 43.008-11.776l153.429333 107.349333L672.938667 660.48l166.229333 125.098667c14.336 10.752 18.432 32.938667 8.874667 49.322666-9.557333 16.384-28.842667 20.992-43.349334 10.069334l-133.461333-100.352-196.096 133.632z" fill="#4191FB" p-id="19072"></path><path d="M403.797333 596.821333m-62.634666 0a62.634667 62.634667 0 1 0 125.269333 0 62.634667 62.634667 0 1 0-125.269333 0Z" fill="#4191FB" p-id="19073"></path></svg>