<?xml version="1.0" standalone="no"?><!DOCTYPE svg PUBLIC "-//W3C//DTD SVG 1.1//EN" "http://www.w3.org/Graphics/SVG/1.1/DTD/svg11.dtd"><svg t="1662022710368" class="icon" viewBox="0 0 1024 1024" version="1.1" xmlns="http://www.w3.org/2000/svg" p-id="25456" xmlns:xlink="http://www.w3.org/1999/xlink" width="32" height="32"><path d="M923.136 969.557333H193.024v-909.653333h521.386667l208.725333 207.701333z" fill="#7CCDFF" p-id="25457"></path><path d="M912.896 253.952l2.56 671.914667c0 15.530667-12.458667 27.989333-27.989333 27.989333H237.909333c-15.530667 0-27.989333-12.458667-27.989333-27.989333V96.938667c0-15.530667 12.458667-27.989333 27.989333-27.989334l493.397334-1.024-38.912-39.936H239.274667c-36.352 0-65.706667 29.354667-65.706667 65.706667v835.584c0 36.352 29.354667 65.706667 65.706667 65.706667h646.826666c36.352 0 65.706667-29.354667 65.706667-65.706667V293.888l-38.912-39.936z" fill="#4191FB" p-id="25458"></path><path d="M692.394667 222.72c0 39.424 31.914667 71.338667 71.338666 71.338667h188.245334L692.394667 27.989333v194.730667z" fill="#C7E2FF" p-id="25459"></path><path d="M557.568 482.304H158.72c-50.346667 0-91.136-40.789333-91.136-91.136v-60.245333c0-50.346667 40.789333-91.136 91.136-91.136h398.848c50.346667 0 91.136 40.789333 91.136 91.136v60.245333c0 50.346667-40.789333 91.136-91.136 91.136z" fill="#4191FB" p-id="25460"></path><path d="M200.192 287.573333h48.298667v84.650667c0 17.749333-1.536 31.232-4.778667 40.618667-3.072 9.216-9.557333 17.066667-18.944 23.552-9.557333 6.485333-21.674667 9.728-36.522667 9.728-15.701333 0-27.989333-2.048-36.522666-6.314667-8.704-4.266667-15.36-10.410667-19.968-18.602667-4.778667-8.192-7.509333-18.261333-8.362667-30.378666l46.08-6.314667c0 6.826667 0.682667 11.946667 1.877333 15.36s3.072 5.973333 5.802667 8.021333c1.877333 1.365333 4.437333 2.048 7.850667 2.048 5.461333 0 9.386667-2.048 11.776-5.973333 2.56-3.925333 3.754667-10.752 3.754666-20.138667v-96.256h-0.341333zM280.234667 287.573333h80.042666c17.408 0 30.549333 4.096 39.082667 12.458667 8.704 8.362667 12.970667 20.138667 12.970667 35.328 0 15.701333-4.778667 27.989333-14.165334 36.864-9.386667 8.874667-23.893333 13.312-43.349333 13.312h-26.282667v57.856h-48.298666v-155.818667z m48.298666 66.389334h11.776c9.216 0 15.872-1.536 19.626667-4.778667 3.754667-3.242667 5.632-7.338667 5.632-12.458667 0-4.949333-1.706667-9.045333-4.949333-12.458666s-9.386667-5.12-18.432-5.12h-13.653334v34.816zM515.925333 386.901333v-32.426666h74.410667v66.389333c-14.165333 9.728-26.794667 16.384-37.717333 19.797333s-23.893333 5.290667-38.912 5.290667c-18.432 0-33.621333-3.072-45.226667-9.386667-11.605333-6.314667-20.650667-15.701333-27.136-28.16-6.485333-12.458667-9.557333-26.794667-9.557333-42.837333 0-17.066667 3.584-31.744 10.581333-44.373333s17.237333-22.186667 30.890667-28.672c10.581333-4.949333 24.746667-7.509333 42.666666-7.509334 17.237333 0 30.037333 1.536 38.570667 4.608s15.701333 8.021333 21.162667 14.506667c5.632 6.485333 9.898667 14.848 12.629333 24.917333l-46.421333 8.362667c-1.877333-5.802667-5.12-10.410667-9.728-13.482667-4.608-3.072-10.410667-4.608-17.408-4.608-10.581333 0-18.944 3.584-25.258667 10.922667s-9.386667 18.944-9.386667 34.816c0 16.896 3.242667 28.842667 9.557334 36.181333 6.314667 7.168 15.189333 10.752 26.453333 10.752 5.461333 0 10.581333-0.853333 15.36-2.389333 4.949333-1.536 10.410667-4.266667 16.725333-8.021333v-14.677334h-32.256z" fill="#FFFFFF" p-id="25461"></path><path d="M397.824 589.482667m-90.794667 0a90.794667 90.794667 0 1 0 181.589334 0 90.794667 90.794667 0 1 0-181.589334 0Z" fill="#4191FB" p-id="25462"></path><path d="M295.082667 834.389333v47.786667h536.746666v-115.029333l-166.570666-153.941334-198.656 183.637334-66.048-61.269334z" fill="#4191FB" p-id="25463"></path></svg>