<?xml version="1.0" standalone="no"?><!DOCTYPE svg PUBLIC "-//W3C//DTD SVG 1.1//EN" "http://www.w3.org/Graphics/SVG/1.1/DTD/svg11.dtd"><svg t="1662099232914" class="icon" viewBox="0 0 1024 1024" version="1.1" xmlns="http://www.w3.org/2000/svg" p-id="16111" xmlns:xlink="http://www.w3.org/1999/xlink" width="32" height="32"><path d="M979 1024H127.1C57 1024 0 967 0 896.9V45C0 20.1 20.1 0 45 0s45 20.1 45 45v851.9c0 20.5 16.6 37.1 37.1 37.1H979c24.9 0 45 20.1 45 45s-20.1 45-45 45z" p-id="16112" data-spm-anchor-id="a313x.7781069.0.i3" class="" fill="#1890ff"></path><path d="M207.3 877.7c-6.3 0-12.6-1.3-18.7-4.1-22.6-10.4-32.5-37.1-22.2-59.7L323.1 472c5-10.8 14.1-19.3 25.2-23.4 11.2-4.2 23.6-3.7 34.4 1.3l278 127.5 217.6-474.7c10.4-22.6 37.1-32.5 59.7-22.2 22.6 10.4 32.5 37.1 22.2 59.7L723.9 655.8c-5 10.8-14.1 19.3-25.2 23.4-11.2 4.2-23.6 3.7-34.4-1.3l-278-127.5-138 301c-7.6 16.6-24 26.3-41 26.3z" p-id="16113" data-spm-anchor-id="a313x.7781069.0.i4" class="selected"></path></svg>