<?xml version="1.0" standalone="no"?><!DOCTYPE svg PUBLIC "-//W3C//DTD SVG 1.1//EN" "http://www.w3.org/Graphics/SVG/1.1/DTD/svg11.dtd"><svg t="1662022633935" class="icon" viewBox="0 0 1024 1024" version="1.1" xmlns="http://www.w3.org/2000/svg" p-id="18366" xmlns:xlink="http://www.w3.org/1999/xlink" width="32" height="32"><path d="M923.136 969.557333H193.024v-909.653333h521.386667l208.725333 207.701333z" fill="#7CCDFF" p-id="18367"></path><path d="M912.896 253.952l2.56 671.914667c0 15.530667-12.458667 27.989333-27.989333 27.989333H237.909333c-15.530667 0-27.989333-12.458667-27.989333-27.989333V96.938667c0-15.530667 12.458667-27.989333 27.989333-27.989334l493.397334-1.024-38.912-39.936H239.274667c-36.352 0-65.706667 29.354667-65.706667 65.706667v835.584c0 36.352 29.354667 65.706667 65.706667 65.706667h646.826666c36.352 0 65.706667-29.354667 65.706667-65.706667V293.888l-38.912-39.936z" fill="#4191FB" p-id="18368"></path><path d="M692.394667 222.72c0 39.424 31.914667 71.338667 71.338666 71.338667h188.245334L692.394667 27.989333v194.730667z" fill="#C7E2FF" p-id="18369"></path><path d="M557.568 482.304H158.72c-50.346667 0-91.136-40.789333-91.136-91.136v-60.245333c0-50.346667 40.789333-91.136 91.136-91.136h398.848c50.346667 0 91.136 40.789333 91.136 91.136v60.245333c0 50.346667-40.789333 91.136-91.136 91.136z" fill="#4191FB" p-id="18370"></path><path d="M122.026667 287.573333h80.042666c17.408 0 30.549333 4.096 39.082667 12.458667 8.704 8.362667 12.970667 20.138667 12.970667 35.328 0 15.701333-4.778667 27.989333-14.165334 36.864-9.386667 8.874667-23.893333 13.312-43.349333 13.312H170.496v57.856H122.026667v-155.818667z m48.469333 66.389334h11.776c9.216 0 15.872-1.536 19.626667-4.778667 3.754667-3.242667 5.632-7.338667 5.632-12.458667 0-4.949333-1.706667-9.045333-4.949334-12.458666s-9.386667-5.12-18.432-5.12h-13.653333v34.816zM280.064 287.573333H351.573333c14.165333 0 25.429333 1.877333 34.133334 5.802667 8.704 3.754667 15.872 9.386667 21.504 16.384 5.632 7.168 9.728 15.530667 12.288 24.917333 2.56 9.557333 3.754667 19.626667 3.754666 30.208 0 16.725333-1.877333 29.525333-5.632 38.741334s-9.045333 16.896-15.701333 23.04-13.994667 10.24-21.674667 12.458666c-10.581333 2.901333-20.138667 4.266667-28.672 4.266667h-71.509333v-155.818667z m48.128 35.328V407.893333h11.776c10.069333 0 17.237333-1.194667 21.504-3.413333s7.509333-6.144 10.069333-11.605333c2.389333-5.632 3.584-14.506667 3.584-26.965334 0-16.554667-2.730667-27.818667-8.021333-33.962666-5.461333-6.144-14.336-9.216-26.794667-9.216l-12.117333 0.170666zM448.853333 287.573333h118.954667v33.450667h-70.656V348.16h60.416v31.402667h-60.416v63.658666H448.853333v-155.648z" fill="#FFFFFF" p-id="18371"></path><path d="M590.677333 470.016c-1.365333 0.682667-3.242667 1.194667-0.853333 0.682667-2.56 0.512-2.218667 0.853333-4.949333 0 2.048 0.512-3.584-2.048-0.853334-0.512 2.56 1.536-1.877333-2.218667-0.512-0.341334 0.170667 0.170667 1.365333 1.706667 1.706667 1.706667-0.853333 0-2.048-3.072-0.341333-0.341333 1.194667 1.877333 2.218667 3.925333 3.242666 5.973333 1.365333 2.56-1.024-2.56 0 0.170667 0.341333 1.024 0.853333 2.048 1.194667 3.072 0.853333 2.389333 1.706667 4.778667 2.389333 7.338666 1.194667 4.266667 2.218667 8.533333 3.072 12.970667 0.170667 1.194667 0.512 2.218667 0.682667 3.413333-0.341333-2.218667 0.170667 1.706667 0.170667 2.389334 0.341333 3.754667 0.341333 7.68 0.170666 11.434666 0 1.706667-0.170667 3.242667-0.341333 4.949334 0 0.682667-0.512 4.608-0.170667 2.389333-0.512 3.584-1.194667 6.997333-1.877333 10.581333-2.901333 13.482667-7.168 26.453333-11.946667 39.253334-1.194667 3.072-2.389333 6.314667-3.754666 9.386666 0 0-1.024 2.389333-0.341334 1.024 0.512-1.365333-0.512 1.024-0.512 1.024-0.682667 1.706667-1.536 3.413333-2.218666 4.949334-2.730667 6.144-5.632 12.288-8.704 18.261333-6.144 12.117333-12.629333 24.064-19.456 35.669333-12.970667 22.357333-26.453333 44.373333-40.618667 66.048-6.997333 10.752-14.165333 21.333333-21.674667 31.744-3.754667 5.12-7.509333 10.410667-11.264 15.36-0.853333 1.194667-1.706667 2.389333-2.730666 3.584l-0.512 0.682667c1.024-1.194667-0.512 0.682667-0.512 0.682667-2.048 2.730667-4.266667 5.461333-6.314667 8.021333-15.872 19.456-32.938667 38.058667-51.541333 54.784-4.778667 4.266667-9.557333 8.362667-14.506667 12.288-1.365333 1.024-2.730667 2.218667-4.096 3.242667l-0.682667 0.512c1.194667-1.024-0.682667 0.512-0.682666 0.512-2.56 1.877333-5.12 3.754667-7.850667 5.632-2.730667 1.877333-5.461333 3.584-8.192 5.12-1.365333 0.682667-2.56 1.365333-3.925333 2.048l-2.048 1.024c-0.170667 0.170667-2.901333 1.194667-1.536 0.682666 1.536-0.682667-0.682667 0.341333-0.853334 0.341334-0.682667 0.170667-1.365333 0.512-2.048 0.682666-1.536 0.512-3.242667 1.024-4.778666 1.365334-1.365333 0.341333-2.730667 0.682667-4.266667 0.853333 2.901333-0.341333-1.365333 0-2.218667 0-1.365333 0-2.901333-0.170667-4.266666-0.170667-1.877333 0 0.512 0 0.682666 0.170667-0.682667-0.170667-1.194667-0.341333-1.877333-0.341333-0.682667-0.170667-1.194667-0.341333-1.877333-0.512 2.901333 0.853333 1.024 0.512 0.341333 0 0.512 0.341333 1.024 1.194667 1.536 1.536 1.706667 1.194667-1.194667-1.536 0 0.170666 0.853333 1.365333-0.341333-1.706667-0.682667-2.389333-0.512-1.706667 0.170667 0.512 0.170667 0.853333 0-0.682667 0-1.365333-0.170667-2.048 0-1.024 0.682667-5.12 0-1.877333 0.341333-1.536 0.682667-3.072 1.194667-4.608 0.170667-0.682667 0.512-1.194667 0.682667-1.877333-0.170667 0.341333-1.024 2.048-0.170667 0.682666 0.682667-1.194667 1.194667-2.389333 1.877333-3.584 0.341333-0.512 2.389333-3.413333 1.536-2.389333-1.024 1.365333 0.341333-0.512 0.512-0.512 0.682667-0.853333 1.536-1.706667 2.389334-2.56 1.024-1.024 2.048-1.877333 3.072-2.730667 1.194667-1.194667-0.170667 0-0.341334 0.170667 0.512-0.512 1.194667-0.853333 1.706667-1.194667 2.730667-1.877333 5.632-3.584 8.704-5.12 1.365333-0.682667 2.56-1.194667 3.925333-1.877333 1.706667-0.682667-0.170667 0-0.341333 0.170667 0.682667-0.341333 1.365333-0.512 2.048-0.853334 2.901333-1.194667 5.973333-2.218667 9.045333-3.072 6.485333-2.048 12.970667-3.925333 19.626667-5.632 13.653333-3.754667 27.477333-6.997333 41.301333-9.898666 13.824-2.901333 27.818667-5.290667 41.813334-7.509334 3.242667-0.512 6.485333-1.024 9.728-1.365333 0 0 2.730667-0.341333 1.194666-0.170667-1.706667 0.170667 1.706667-0.170667 2.048-0.341333 1.877333-0.170667 3.754667-0.512 5.632-0.682667 6.997333-0.853333 14.165333-1.706667 21.162667-2.389333 56.32-5.632 113.152-5.973333 169.813333-3.413333 6.997333 0.341333 13.994667 0.682667 20.992 1.194666 3.072 0.170667 6.314667 0.512 9.386667 0.682667 1.536 0.170667 3.072 0.341333 4.778667 0.512 1.877333 0.170667 0.170667 0-0.170667 0 1.365333 0.170667 2.56 0.341333 3.925333 0.682667 6.485333 1.194667 12.8 2.730667 18.944 5.12 2.730667 1.024 0.341333 0.170667-0.170666-0.170667 0.512 0.341333 1.194667 0.512 1.706666 0.853333 1.194667 0.512 2.389333 1.194667 3.413334 1.706667 2.389333 1.365333 4.778667 2.901333 7.168 4.437333 0.170667 0.170667 1.877333 1.536 0.512 0.341334-1.536-1.194667 0.512 0.512 0.853333 0.853333 1.024 0.853333 1.877333 1.706667 2.730667 2.56s1.706667 1.877333 2.56 2.730667c0.341333 0.512 0.853333 1.024 1.194666 1.536-0.853333-1.024-1.024-1.365333-0.170666 0 0.682667 1.024 1.365333 2.048 2.048 3.242666 0.341333 0.512 2.048 4.437333 1.365333 2.730667-0.682667-1.706667 0.512 1.706667 0.682667 2.218667s1.194667 3.754667 0.853333 4.096c-0.170667 0.170667-0.170667-3.072-0.170667-1.194667v1.877333c0 0.682667-0.512 4.778667 0 2.730667 0.512-2.048-0.512 1.365333-0.682666 2.048-0.170667 0.512-0.341333 1.024-0.512 1.706667 0.341333-1.024 1.024-2.218667 0.170666-0.512-1.194667 2.389333 1.706667-1.365333-0.341333 0.512l-1.194667 1.194666c-1.024 1.194667 0.512-0.512 0.682667-0.512-0.682667 0.341333-1.536 0.853333-2.218667 1.194667 0.341333-0.170667 2.389333-0.682667 0.853334-0.512-0.512 0-1.365333 0.341333-1.706667 0.512 1.024-0.341333 2.389333-0.170667 0.512-0.170667-1.194667 0-2.56-0.170667-3.754667 0 0.170667 0 2.730667 0.512 0.853334 0.170667-0.682667-0.170667-1.365333-0.170667-1.877334-0.341333-1.536-0.341333-3.072-0.853333-4.437333-1.194667-1.024-0.341333-4.608-1.877333-1.877333-0.682667-5.461333-2.56-10.581333-5.632-15.701334-8.874666-2.389333-1.536-4.778667-3.072-6.997333-4.778667-1.194667-0.853333-2.218667-1.706667-3.413333-2.56 0.170667 0.170667 1.706667 1.365333 0.341333 0.341333-0.853333-0.682667-1.877333-1.536-2.730667-2.218666-4.608-3.754667-8.874667-7.68-13.141333-11.776-8.874667-8.533333-17.066667-17.92-24.746667-27.648-0.512-0.512-0.853333-1.194667-1.365333-1.706667 0-0.170667-1.536-2.048-0.512-0.682667 1.024 1.365333-0.682667-1.024-1.024-1.194666-0.512-0.512-0.853333-1.194667-1.365333-1.706667-1.877333-2.56-3.754667-4.949333-5.461334-7.509333-3.584-5.12-7.168-10.24-10.581333-15.36-15.701333-23.210667-30.378667-47.104-44.373333-71.338667-13.824-23.893333-27.477333-47.957333-38.741334-73.216-0.682667-1.365333-1.194667-2.901333-1.877333-4.266667 1.024 2.218667-0.853333-2.218667-1.194667-2.730666-1.194667-3.072-2.56-6.314667-3.584-9.386667-2.218667-6.314667-4.437333-12.8-6.144-19.285333s-3.242667-13.141333-4.266666-19.797334c-0.170667-0.512-0.170667-1.194667-0.170667-1.706666-0.341333-1.706667 0.170667 1.194667 0.170667 1.365333 0.170667-0.853333-0.341333-2.56-0.341334-3.413333-0.341333-2.730667-0.512-5.632-0.512-8.362667-0.170667-5.290667-0.170667-10.752 0-16.042667 0.170667-2.56 0.341333-4.949333 0.512-7.509333 0.170667-1.194667 0.170667-2.56 0.341334-3.754667 0-0.682667 0.170667-1.194667 0.170666-1.877333 0.341333-2.389333-0.682667 3.754667 0-0.170667 0.853333-4.949333 1.706667-9.898667 2.901334-14.677333l2.048-7.168 1.024-3.072c0.170667-0.682667 1.706667-4.266667 0.853333-2.048-1.024 2.218667 0.682667-1.536 0.853333-1.877333 0.512-0.853333 0.853333-1.706667 1.365334-2.56 0.853333-1.706667 1.877333-3.242667 2.901333-4.778667 0.170667-0.341333 0.512-0.682667 0.853333-1.024 0.853333-1.365333-1.024 1.536-1.024 1.365333 0-0.512 1.706667-1.877333 2.048-2.218666l1.706667-1.706667c2.048-3.072-2.56 0.853333-0.682667-0.512 6.656-4.608 10.410667-13.824 5.632-21.333333-4.266667-6.656-13.994667-10.410667-21.333333-5.632-18.602667 12.629333-26.112 36.352-29.525333 57.685333-4.096 26.282667-3.072 52.394667 3.925333 78.336 7.850667 29.184 21.504 56.661333 36.010667 83.285333 14.848 27.477333 30.72 54.442667 47.445333 80.725334 15.189333 24.064 31.061333 47.786667 49.834667 69.461333 8.704 10.069333 18.090667 19.456 28.16 27.818667 10.752 8.874667 22.528 17.749333 35.328 23.552 14.336 6.485333 31.232 9.898667 45.397333 1.024 14.506667-9.045333 18.944-26.112 16.384-42.154667-4.437333-29.184-33.792-47.786667-60.416-53.589333-15.36-3.413333-31.061333-4.096-46.762667-4.949334-15.36-0.682667-30.549333-1.365333-45.909333-1.536-31.232-0.512-62.464-0.170667-93.525333 1.877334-61.781333 3.754667-123.904 12.970667-183.296 30.72-14.848 4.437333-29.354667 10.24-41.301334 20.309333-11.776 9.898667-19.626667 24.576-20.309333 39.936-0.341333 7.68 1.365333 16.213333 5.973333 22.528 6.144 8.533333 15.189333 11.946667 25.258667 13.141333 15.189333 1.706667 30.549333-3.754667 43.690667-11.264 12.8-7.338667 24.405333-17.066667 35.669333-26.624 10.410667-8.874667 20.309333-18.261333 29.696-28.16 19.626667-20.48 37.376-43.008 53.930667-66.048 16.213333-22.528 31.061333-46.08 45.568-69.632 15.189333-25.088 30.208-50.346667 42.666666-76.970666 13.141333-28.330667 25.088-58.709333 27.818667-89.941334 1.194667-13.482667-0.682667-26.965333-4.096-40.106666-2.901333-10.752-6.656-21.845333-13.482667-30.549334-3.754667-4.949333-8.362667-8.704-14.336-10.752-6.656-2.218667-13.312-0.682667-19.456 2.048-7.338667 3.413333-9.728 14.677333-5.632 21.333334 4.778667 7.509333 13.141333 9.045333 20.992 5.461333z" fill="#4191FB" p-id="18372"></path></svg>