<?xml version="1.0" standalone="no"?><!DOCTYPE svg PUBLIC "-//W3C//DTD SVG 1.1//EN" "http://www.w3.org/Graphics/SVG/1.1/DTD/svg11.dtd"><svg t="1662099268375" class="icon" viewBox="0 0 1024 1024" version="1.1" xmlns="http://www.w3.org/2000/svg" p-id="2604" data-spm-anchor-id="a313x.7781069.0.i28" xmlns:xlink="http://www.w3.org/1999/xlink" width="32" height="32"><path d="M979 1024H127.1C57 1024 0 967 0 896.9V45C0 20.1 20.1 0 45 0s45 20.1 45 45v851.9c0 20.5 16.6 37.1 37.1 37.1H979c24.9 0 45 20.1 45 45s-20.1 45-45 45z" p-id="2605" fill="#1890ff" data-spm-anchor-id="a313x.7781069.0.i22" class=""></path><path d="M800 797.6m-64.4 0a64.4 64.4 0 1 0 128.8 0 64.4 64.4 0 1 0-128.8 0Z" p-id="2606" fill="#0e932e" data-spm-anchor-id="a313x.7781069.0.i26" class=""></path><path d="M618.2 484m-64.4 0a64.4 64.4 0 1 0 128.8 0 64.4 64.4 0 1 0-128.8 0Z" p-id="2607" fill="#2c2c2c" data-spm-anchor-id="a313x.7781069.0.i24" class=""></path><path d="M366.2 114.6m-64.4 0a64.4 64.4 0 1 0 128.8 0 64.4 64.4 0 1 0-128.8 0Z" p-id="2608" fill="#13227a" data-spm-anchor-id="a313x.7781069.0.i27" class=""></path><path d="M244.5 368m-64.4 0a64.4 64.4 0 1 0 128.8 0 64.4 64.4 0 1 0-128.8 0Z" p-id="2609" fill="#f4ea2a" data-spm-anchor-id="a313x.7781069.0.i23" class=""></path><path d="M366.3 687.4m-85.9 0a85.9 85.9 0 1 0 171.8 0 85.9 85.9 0 1 0-171.8 0Z" p-id="2610" fill="#1296db" data-spm-anchor-id="a313x.7781069.0.i21" class=""></path><path d="M885.9 209.1m-93.1 0a93.1 93.1 0 1 0 186.2 0 93.1 93.1 0 1 0-186.2 0Z" p-id="2611" fill="#d81e06" data-spm-anchor-id="a313x.7781069.0.i25" class=""></path></svg>